<svg width="128" height="128" viewBox="0 0 128 128" fill="none" xmlns="http://www.w3.org/2000/svg">
  <rect x="1" y="1" width="126" height="126" rx="34" fill="url(#bg)" stroke="rgba(20,34,41,0.12)"/>
  <path d="M34 41.5C40.8 31.8333 50.7667 27 63.9 27C75.1 27 83.95 29.8 90.45 35.4L83.55 44.05C77.95 39.7833 71.3833 37.65 63.85 37.65C56.1833 37.65 50.2167 39.95 45.95 44.55C41.75 49.0833 39.65 54.9167 39.65 62.05C39.65 68.9167 41.7 74.55 45.8 78.95C49.9667 83.35 55.8 85.55 63.3 85.55C71.6333 85.55 78.7667 82.85 84.7 77.45L91.4 86.2C84.1333 93 74.7833 96.4 63.35 96.4C50.75 96.4 40.85 92.3 33.65 84.1C26.5167 75.9 22.95 65.25 22.95 52.15H34C34 61.55 36.2 69.1 40.6 74.8C45 80.4333 52.2333 83.25 62.3 83.25C67.6333 83.25 72.45 82.4 76.75 80.7C81.05 78.9333 84.25 76.6333 86.35 73.8L63.55 73.75V64.5H102.95V72C100.217 79.2 95.6667 85.1167 89.3 89.75C82.9333 94.3167 74.2667 96.6 63.3 96.6C49.7667 96.6 39.1833 92.25 31.55 83.55C23.9833 74.7833 20.2 63.75 20.2 50.45C20.2 47.65 20.4333 44.9 20.9 42.2H34V41.5Z" fill="url(#stroke)"/>
  <defs>
    <linearGradient id="bg" x1="14" y1="12" x2="114" y2="118" gradientUnits="userSpaceOnUse">
      <stop stop-color="#FFF8ED"/>
      <stop offset="1" stop-color="#E4F2EE"/>
    </linearGradient>
    <linearGradient id="stroke" x1="30" y1="26" x2="96" y2="98" gradientUnits="userSpaceOnUse">
      <stop stop-color="#D18944"/>
      <stop offset="1" stop-color="#0E7A74"/>
    </linearGradient>
  </defs>
</svg>
